<svg id="Layer_1" data-name="Layer 1" xmlns="http://www.w3.org/2000/svg" viewBox="0 0 100 100"><defs><style>.cls-1{fill:#e82582;}</style></defs><path class="cls-1" d="M36.9,83.82a.74.74,0,0,1,.48.81,2,2,0,0,0,.5,1.55,2.11,2.11,0,0,0,1.57.52H60c1.38,0,2.07-.67,2.19-2.12a1.77,1.77,0,0,1,.1-.53c1.77-.87,1.92-2.41,1.91-4,0-6.76,0-13.64,0-20.29V51.28c0-.45,0-.89,0-1.32a3.09,3.09,0,0,0-1.94-2.7,1.37,1.37,0,0,1-.41-.37,2.8,2.8,0,0,0-.46-.45,2.48,2.48,0,0,1-.26-.19,6,6,0,0,0-1.57-.91,3.66,3.66,0,0,0-1.35-.08H58a.71.71,0,0,1,0-.42.61.61,0,0,1,.36-.14c.62-.1,1.35-.52,1.31-1.94l-.09-3c-.1-3.52-.21-7.15-.34-10.73-.07-1.82-.15-3.68-.23-5.48-.11-2.36-.22-4.79-.29-7.19a2.28,2.28,0,0,0-1.87-2.43l-.28-.07a4.12,4.12,0,0,0-.94-.18l-2-.12c-2.11-.12-4.3-.24-6.45-.24a21.07,21.07,0,0,0-4,.53l-.55.11a2.08,2.08,0,0,0-1.8,2.24c-.12,5.4-.31,10.88-.5,16.19l0,.57c-.08,2.21-.19,4.46-.29,6.64,0,1-.09,1.94-.13,2.91,0,.7-.09,2,1.33,2.23a.62.62,0,0,1,.34.13.83.83,0,0,1,0,.44h0c-.23,0-.42,0-.62,0a2.61,2.61,0,0,0-3,1.72,1.13,1.13,0,0,1-.44.24,3,3,0,0,0-2.08,3v31A2.82,2.82,0,0,0,36.9,83.82ZM42,26.23l.13-3.35.06-1.45c.06-1.71.14-3.48.16-5.22,0-.64.15-.76.56-.79l2.42-.22c1.86-.18,3.78-.36,5.67-.39a23.66,23.66,0,0,1,3.74.35l1.74.24c.42,0,.6.16.62.78.11,2.51.24,5.06.36,7.53.11,2.24.23,4.57.33,6.85.11,2.58.19,5.21.27,7.75l.09,3.1c0,.12,0,.24,0,.37s0,.33,0,.5a1,1,0,0,1-.18.83,1.27,1.27,0,0,1-1,.2c-.59,0-1.19-.05-1.78-.05H53.92l-.94,0v0H42a.78.78,0,0,1-.48-.11c-.09-.09-.12-.3-.11-.64C41.61,37.09,41.82,31.57,42,26.23ZM56.29,44.88v.35H43.08v-.35Zm4.3,20.41.42.58.24-.67A9,9,0,0,0,61.62,62c0-.3,0-.61,0-.92,0-1,0-2,0-2.93,0-.42,0-.85,0-1.27V48.78a1.22,1.22,0,0,1,1,1,6.59,6.59,0,0,1,.12,1.42c0,9.56,0,19.28,0,28.67v.27c0,2.21-.36,2.57-2.6,2.57h-.43a10.61,10.61,0,0,0-1.12,0,1.25,1.25,0,0,0-.61.3l-.17.11-.56.34.58.31.15.1a1.17,1.17,0,0,0,.6.25c.58,0,1.16,0,1.72,0h.31c0,.29.1.68,0,.79s-.36.14-.84.14H39.82A2.1,2.1,0,0,1,39,85a2,2,0,0,1,0-.89h8.94L48,83,47.71,83l-.29-.08a2.69,2.69,0,0,0-.76-.14H38.92c-1.56,0-2.11-.56-2.11-2.12V50.71c0-1.37.32-1.76,1.68-2.14a1.37,1.37,0,0,0,.86-1c.1-.59.34-.79.95-.78H59.24c.5,0,.65.12.73.22a1.78,1.78,0,0,1,.2,1c0,2.19,0,4.38,0,6.57,0,3,0,6.09,0,9.14A2.54,2.54,0,0,0,60.59,65.29Z"/><path class="cls-1" d="M10.31,61.67c.48,2.88,1.21,5.76,1.91,8.55.25,1,.51,2,.76,3a1.41,1.41,0,0,0,.5.69l.2.2.59.68.06-.9c0-.1,0-.2,0-.3a2.5,2.5,0,0,0,0-.82,10,10,0,0,0-.27-1.11,4.51,4.51,0,0,1-.29-1.78A60.59,60.59,0,0,1,15,63.76c.05-.24.11-.49.16-.73a1.28,1.28,0,0,1,.61-.67,12.82,12.82,0,0,0,6.28-5.52,22.75,22.75,0,0,0,2.85-8.31c.25-1.64.4-3.33.54-5,0-.38.07-.76.1-1.14a1.17,1.17,0,0,0-.22-.7,1.24,1.24,0,0,1-.1-.2l-.18-.39-.36.23-.18.09a1.93,1.93,0,0,0-.49.35c-.32.36-.62.73-.9,1.1l-.14.17C18,49.42,14.71,57,12.83,66.32l0,.11A67.89,67.89,0,0,1,11,50.64a.66.66,0,0,1,.22-.41c3.16-1.72,4.45-4.54,4.06-8.87A10.14,10.14,0,0,0,15,39.83c-.07-.27-.13-.54-.19-.84l-.13-.62-1.29,1.1c0-.25,0-.5,0-.75,0-1.21,0-2.47,0-3.7,0-.42-.09-.93-.49-1.12s-.86.08-1.25.38-.65.52-.92.76c-.13-.21-.25-.43-.37-.64-.46-.81-.89-1.57-1.35-2.33-.34-.56-.71-.67-.95-.65s-.61.15-.88.75c-.45,1-.89,2-1.31,2.93L5.4,36c-.44-.17-.8-.25-1.09-.05S4,36.7,4,37.52a30.19,30.19,0,0,0,.37,3.31l.15,1-1.73-.08-1.15,0,.12.49c.06.22.11.46.16.69a8.84,8.84,0,0,0,.44,1.58,12.51,12.51,0,0,0,2.57,4.23,6.58,6.58,0,0,0,4.3,2c.09,1.07.18,2.16.26,3.21C9.69,56.54,9.88,59.09,10.31,61.67ZM9.58,39a8.09,8.09,0,0,1,2.33-3,11.13,11.13,0,0,1-1.05,6.14l-.12-.24c-.37-.76-.73-1.48-1.05-2.22A1.07,1.07,0,0,1,9.58,39Zm4,2.39c.62,3.25-.6,6.23-3,7.24C9.78,46.62,11.65,43.13,13.6,41.41ZM9.5,44.5c-3.17-2.39-4.26-4.21-3.93-6.6C8.23,39.54,10,42.46,9.5,44.5Zm-.57,3.24A8.08,8.08,0,0,0,9,48.94c-2.47-.27-4.77-2.69-5.42-5.72A9.48,9.48,0,0,1,7.76,45C8.85,45.66,8.89,46.62,8.93,47.74ZM8.32,38a2.83,2.83,0,0,1-1.14-1.88,3.5,3.5,0,0,1,.93-2.54C9.4,35,9.45,36.22,8.32,38Zm15.54,6.5c-.2,4.9-1.8,11.08-5.08,14.11a20.11,20.11,0,0,1-2.27,1.71l-.74.51A48.89,48.89,0,0,1,23.86,44.45Z"/><path class="cls-1" d="M98.34,39.59c0-.39,0-.79,0-1.17v-.35l-.34,0-.2,0a.41.41,0,0,0-.3,0l-.41.19c.47-3,.37-4.17-.36-5.35l-.18-.29-1.26.63L94,29.61l-.88-.11-2.42,3.17-.39-.83-1.06.34L87.59,38.1c-.16-.1-.34-.21-.53-.31-.41-.25-.89-.47-1.27-.24s-.41.73-.4,1.14v.09a20.73,20.73,0,0,0,.37,3.92,12,12,0,0,0,4.84,6.94,1.14,1.14,0,0,1,.41.66c-.2,1.82-.45,4-.82,6.15a78.82,78.82,0,0,1-5.55,18.13,1.64,1.64,0,0,0-.07.87c0,.11,0,.21,0,.3v.85l.64-.58.21-.17a1.6,1.6,0,0,0,.57-.61,80.26,80.26,0,0,0,6.57-24.46,1.34,1.34,0,0,1,.52-.87,9.83,9.83,0,0,0,5.19-7.62A15.27,15.27,0,0,0,98.34,39.59ZM90,34.42a14,14,0,0,1,2.54,6.64,3.06,3.06,0,0,1-.42,1.36c0,.08-.07.15-.1.22l-.51-.6c-.75-.87-1.45-1.69-2.11-2.52a1.19,1.19,0,0,1-.23-.79c.19-1.17.43-2.36.67-3.5C89.91,35,90,34.69,90,34.42Zm2.53,1.18c-.89-1.55-.76-2.29.64-3.73C94.05,33.3,93.91,34.12,92.55,35.6Zm1.53,4.67-.1-.34c-.23-.81-.46-1.65-.67-2.48a.55.55,0,0,1,0-.33c.65-.7,1.32-1.4,2-2.14l.27-.28C96.1,37.13,95.55,39.07,94.08,40.27Zm1.58,5a7.54,7.54,0,0,1-3.37,3.16c-.91-2.87.79-5.93,4.54-8.14A8.56,8.56,0,0,1,95.66,45.26ZM91,44.51a.5.5,0,0,0,0,.12c-.14.88-.27,1.75-.4,2.59l0,.26A9.73,9.73,0,0,1,87,39.54a11.26,11.26,0,0,1,4,4.67A1.1,1.1,0,0,1,91,44.51Z"/><path class="cls-1" d="M86.58,63.52a22.67,22.67,0,0,0,2.17-9,1.1,1.1,0,0,0-.42-1,1.08,1.08,0,0,0-1,.18c-.47.35-.9.71-1.37,1.09l-.35-4.56-.86-.1-1,.91-1.5-3.35-.84.08-.1.17-.31.56c-.24.42-.49.86-.71,1.31s-.4.92-.58,1.37l-.07.18-1-.69-1.32,3.16-1.18-.77-.63.53v.17A18.4,18.4,0,0,0,76.66,61a11.86,11.86,0,0,0,4.79,5.59.86.86,0,0,1,.51,1c-.61,5.15-1.16,9.85-1.67,14.39a2.23,2.23,0,0,0,.15.91c0,.12.07.23.09.33l.2.94.49-.83.17-.25a1.77,1.77,0,0,0,.39-.8c.29-2.39.58-4.82.85-7.18s.59-5,.9-7.52A1.92,1.92,0,0,1,84,66.7c.28-.36.61-.71.92-1A11.15,11.15,0,0,0,86.58,63.52Zm-3.23-5.91c-.09-.2-.19-.39-.28-.58-.24-.47-.51-1-.43-1.28a10.67,10.67,0,0,1,1.29-2.44l.26-.43A5.84,5.84,0,0,1,83.35,57.61Zm-1.78-3.42c-.93-1.33-.91-2.18.14-3.83C82.65,52.07,82.62,52.77,81.57,54.19Zm.52,4.88-.38-.42c-1-1.13-1.93-2.2-2.85-3.31a1.2,1.2,0,0,1-.12-.82,8.31,8.31,0,0,1,.33-1.12A13.93,13.93,0,0,1,82.09,59.07Zm0,6.17c-3.09-1.94-4.71-4.89-5.16-9.43C80.06,58.19,82.63,62.1,82.14,65.24Zm1.59-5.16a11.5,11.5,0,0,1,3.16-3.88c-.4,3.19-.86,6.2-3.09,8.63l-.09-.51c-.17-1-.33-1.89-.4-2.81A3.24,3.24,0,0,1,83.73,60.08Z"/><path class="cls-1" d="M75.32,42.88l.32.5.32-.5a2.43,2.43,0,0,1,.14-.2,1.83,1.83,0,0,0,.33-.62,4.23,4.23,0,0,1,3.49-3.38,1.44,1.44,0,0,0,.63-.35l.18-.14.51-.33-.52-.3-.2-.13a1.8,1.8,0,0,0-.63-.33,5.42,5.42,0,0,1-1.47-.56v0l0,0a4,4,0,0,1-1.89-2.75c0-.19-.09-.39-.14-.57a2.5,2.5,0,0,0-.07-.26l0-.18-.77-.31-.16.29-.14.23a1.94,1.94,0,0,0-.34.69,4.13,4.13,0,0,1-3.4,3.44,1.7,1.7,0,0,0-.62.35l-.19.14-.5.33.52.31.2.13a1.57,1.57,0,0,0,.63.32A4.17,4.17,0,0,1,74.84,42a1.64,1.64,0,0,0,.34.64A1.05,1.05,0,0,1,75.32,42.88ZM76.84,38l-1.27,1.17-1.18-1.25h0l1.17-1.2Z"/><path class="cls-1" d="M27.16,72a1.17,1.17,0,0,0,.59-.38l.14-.13.36-.29-.36-.3-.12-.11a1,1,0,0,0-.54-.35,4.1,4.1,0,0,1-3.63-3.64,1.07,1.07,0,0,0-.35-.57l-.12-.14-.28-.37-.3.35-.15.15a1.15,1.15,0,0,0-.4.59c-.4,2.25-1.76,3.41-4.42,3.74l-.78.1.57.54c.14.13.24.25.33.35a1.12,1.12,0,0,0,.64.45A4,4,0,0,1,22,75.52a1.27,1.27,0,0,0,.38.6.94.94,0,0,1,.14.16l.3.38.3-.39a.92.92,0,0,1,.14-.15,1.31,1.31,0,0,0,.38-.62,4.93,4.93,0,0,1,.6-1.63h.07l0,0A4.19,4.19,0,0,1,27.16,72Zm-3.11-.8-1.32,1.14-1.2-1.15L22.78,70Z"/><path class="cls-1" d="M69.71,70.15a1.32,1.32,0,0,0-.29.64q0,.12-.06.21l-.22.65.67-.17.23,0a1.25,1.25,0,0,0,.73-.28,12.62,12.62,0,0,0,1-1.17l.13-.15,2.37,2,.87-.88-2-2.3.2-.18c.41-.37.79-.71,1.15-1.1a1.21,1.21,0,0,0,.26-.66c0-.07,0-.15,0-.2L75,66l-.63.15-.2,0a1,1,0,0,0-.69.26c-.39.39-.74.82-1.12,1.27l-.18.22-.25-.27a11.17,11.17,0,0,0-1-1,2.22,2.22,0,0,0-.77-.35l-.28-.08-.81-.3.33.79.09.26a1.81,1.81,0,0,0,.35.71,11.84,11.84,0,0,0,1.07,1.05l.22.2-.24.21C70.47,69.43,70.07,69.78,69.71,70.15Z"/><path class="cls-1" d="M29.83,84.7h.05A2.73,2.73,0,0,0,32.49,82a2.61,2.61,0,0,0-2.64-2.56h0a2.56,2.56,0,0,0-1.86.76,2.6,2.6,0,0,0-.71,1.87A2.68,2.68,0,0,0,28.06,84,2.56,2.56,0,0,0,29.83,84.7Zm1.09-2.64a1.19,1.19,0,0,1-.38.81,1,1,0,0,1-.74.28,1.1,1.1,0,0,1-1-1.21,1.06,1.06,0,0,1,1-1h0a1.09,1.09,0,0,1,.75.34A1.13,1.13,0,0,1,30.92,82.06Z"/><path class="cls-1" d="M33.81,18.56a2.61,2.61,0,0,0,0-5.22h0a2.67,2.67,0,0,0-1.88.8A2.55,2.55,0,0,0,31.16,16a2.65,2.65,0,0,0,2.63,2.59Zm.74-3.45a1.16,1.16,0,0,1,.37.82,1.14,1.14,0,0,1-.35.77,1.1,1.1,0,0,1-.8.33,1.11,1.11,0,1,1,.78-1.92Z"/><path class="cls-1" d="M67,25.42h0a2.68,2.68,0,0,0-1.87.79,2.59,2.59,0,0,0-.74,1.84,2.7,2.7,0,0,0,.81,1.84,2.63,2.63,0,0,0,1.82.77h0A2.63,2.63,0,0,0,69.55,28,2.51,2.51,0,0,0,67,25.42Zm.78,3.4a1.07,1.07,0,0,1-1.58,0,1,1,0,0,1-.29-.75A1,1,0,0,1,67,27H67a1,1,0,0,1,.68.28,1.14,1.14,0,0,1,.37.82A1.08,1.08,0,0,1,67.73,28.82Z"/><path class="cls-1" d="M21.64,28.68l.14.64,2.25-2,2,1.85.16-.59a1.75,1.75,0,0,0-.71-1.94,2,2,0,0,1-.4-.42,2.55,2.55,0,0,1,.43-.45,1.71,1.71,0,0,0,.76-1.81l-.11-.41-.39.15a3.26,3.26,0,0,0-1.12.76L24,25l-.11.11L23.75,25a11.52,11.52,0,0,0-.91-1,.93.93,0,0,0-.65-.22l-.18,0-.52-.09.09.52c0,.05,0,.11,0,.18a.92.92,0,0,0,.22.67c.37.33.78.64,1.08.86l.05,0a2.6,2.6,0,0,1-.58.78A2,2,0,0,0,21.64,28.68Z"/><path class="cls-1" d="M90.92,23.65A1.68,1.68,0,0,0,92.61,22,1.61,1.61,0,0,0,91,20.26a1.69,1.69,0,0,0-1.74,1.65A1.8,1.8,0,0,0,90.92,23.65Zm.13-2.52c.28,0,.64.44,1.26.9-.67.39-1.07.8-1.42.77s-.57-.56-.86-.86C90.37,21.65,90.68,21.18,91.05,21.13Z"/><path class="cls-1" d="M4.49,56a1.63,1.63,0,0,0-1.66,1.7,1.69,1.69,0,0,0,1.71,1.68,1.8,1.8,0,0,0,1.7-1.73A1.71,1.71,0,0,0,4.49,56Zm0,2.52a1.36,1.36,0,0,1-.85-1c0-.23.57-.79.88-.79s.73.45,1.36.9C5.19,58.08,4.78,58.55,4.45,58.5Z"/><path class="cls-1" d="M43.05,41.49l.34.73.34-.73a1.86,1.86,0,0,1,.13-.23,1.63,1.63,0,0,0,.29-.76c.2-4.51.38-9.1.56-13.53l.1-2.43h.06v-.38c0-.22,0-.45,0-.67,0-.56,0-1.14,0-1.71a2.24,2.24,0,0,0-.2-.75c0-.09-.07-.18-.1-.26l-.28-.86-.41.8a2.36,2.36,0,0,1-.15.25,1.73,1.73,0,0,0-.34.81c-.12,2.09-.2,4.21-.28,6.27l0,.86c-.15,3.79-.3,7.71-.42,11.56a1.45,1.45,0,0,0,.28.79C43,41.34,43,41.42,43.05,41.49Z"/><path class="cls-1" d="M88.67,29.93c0-.12-.06-.24-.08-.37a5,5,0,0,0-.24-.9A48.26,48.26,0,0,0,79.13,14,42.93,42.93,0,0,0,63.94,3.17,38.26,38.26,0,0,0,45.46.73,36.54,36.54,0,0,0,33.2,4.23a41.57,41.57,0,0,0-10.4,7.35c-1.66,1.58-3.16,3.31-4.61,5l-.92,1.05A30.63,30.63,0,0,0,18.12,7l-.05-.52-.48.22a1.63,1.63,0,0,0-.88.8L16.2,8.67c-.54,1.23-1.09,2.51-1.52,3.81a7,7,0,0,0,0,5.23,3.8,3.8,0,0,1-.14,3.45c-.24.6-.51,1.23-.79,1.87L12.7,25.38c-.74,1.63-1.5,3.32-2.23,5a2.07,2.07,0,0,0-.12.84,2.81,2.81,0,0,1,0,.3l0,.34,1,.18.12-.26.18-.37a9.28,9.28,0,0,0,.39-.85c3.56-9.18,8.82-16.19,16.1-21.43a36.39,36.39,0,0,1,45,1.39C74.5,11.61,75.78,12.84,77,14l.71.68a31.61,31.61,0,0,0-13.9-3.46h-.48l.12.47a1.9,1.9,0,0,0,.6,1l.8.67a22.49,22.49,0,0,0,2.44,1.87A11.54,11.54,0,0,0,76.93,17c1.53-.43,2.72,0,3.87,1.47a44.49,44.49,0,0,1,6.1,10.7,8.13,8.13,0,0,0,.43.83l.19.35.16.29,1.06-.41ZM17.34,9.55,15.87,17.7S14.7,14.29,17.34,9.55Zm49.19,3.27a32.86,32.86,0,0,1,9.56,2.83A11.51,11.51,0,0,1,66.53,12.82Z"/><path class="cls-1" d="M78.5,85.15l-.23,0a2.94,2.94,0,0,0-.64.14.73.73,0,0,0-.38.32l-.06.08a41,41,0,0,1-12.61,9A40.63,40.63,0,0,0,72.87,80.2l.27-.85-.8.41a15.92,15.92,0,0,0-5,4.14,10.19,10.19,0,0,0-2.85,6.62,3.63,3.63,0,0,1-1.26,3.09c-.24.21-.45.44-.66.66a6.24,6.24,0,0,1-.63.63l-.44.4a4.36,4.36,0,0,1-1.38,1,34.06,34.06,0,0,1-15.22,1.27A38.38,38.38,0,0,1,23.33,86.75a46.24,46.24,0,0,1-7-8.71,2.09,2.09,0,0,0-.66-.57l-.25-.18-.76-.59.16,1,0,.32a1.9,1.9,0,0,0,.22.9,41.93,41.93,0,0,0,2.4,3.49c.89,1.14,1.8,2.23,2.78,3.39.13.17.27.33.41.5A30,30,0,0,0,9.93,84.49l-.5,0,.16.47c0,.12.06.21.08.28a.88.88,0,0,0,.21.46,7.77,7.77,0,0,0,6.54,2.34,5.91,5.91,0,0,0,1.23-.34,2.72,2.72,0,0,1,1.49-.27,21.37,21.37,0,0,1,5.15,2.3c1.16.71,2.29,1.53,3.38,2.32a41.8,41.8,0,0,0,4.27,2.86A35.65,35.65,0,0,0,49.59,99.5a41.91,41.91,0,0,0,5.53-.38,38.25,38.25,0,0,0,19.65-9c1.11-.93,2.15-2,3.15-3l.7-.69a1.11,1.11,0,0,0,.27-.69,1.12,1.12,0,0,1,0-.21l.15-.57Zm-7.93-2.24-4.48,7.65C66.35,87.28,68.37,85,70.57,82.91ZM11.18,85.19l6.33,1.52S14.91,87.67,11.18,85.19Z"/></svg>